<?xml version="1.0" encoding="utf-8"?>
<!-- Generator: Adobe Illustrator 22.1.0, SVG Export Plug-In . SVG Version: 6.00 Build 0)  -->
<svg version="1.1" id="Layer_1" xmlns="http://www.w3.org/2000/svg" xmlns:xlink="http://www.w3.org/1999/xlink" x="0px" y="0px"
	 viewBox="0 0 174 62" style="enable-background:new 0 0 174 62;" xml:space="preserve">
<style type="text/css">
	.st0{fill:#43AB00;}
	.st1{fill:#FFFFFF;}
</style>
<g>
	<g>
		<path class="st0" d="M51.6,46.8c-0.3-0.3-0.7-0.3-0.9,0l-6.3,6.3c-0.3,0.3-0.7,0.6-1,0.9c0,0-1,0.7-1.9,1.1
			c-1,0.4-2.4,0.6-2.4,0.6c-0.4,0-0.9,0.1-1.3,0.1H24.9c-0.4,0-0.9,0-1.3-0.1c0,0-1.5-0.2-2.6-0.7c-0.8-0.4-1.7-1-1.7-1
			c-0.3-0.2-0.7-0.6-1-0.9L9.2,44c-0.3-0.3-0.6-0.7-0.9-1c0,0-0.6-0.8-1-1.7c-0.5-1.1-0.7-2.6-0.7-2.6c-0.1-0.4-0.1-0.9-0.1-1.3
			V24.6c0-0.4,0-0.9,0.1-1.3c0,0,0.2-1.3,0.6-2.3c0.4-1,1.2-2,1.2-2c0.2-0.3,0.6-0.7,0.9-1l9.1-9.1c0.3-0.3,0.7-0.6,1-0.9
			c0,0,0.9-0.7,1.8-1.1c1-0.5,2.5-0.7,2.5-0.7c0.4-0.1,0.9-0.1,1.3-0.1h12.9c0.4,0,0.9,0,1.3,0.1c0,0,1.3,0.2,2.3,0.6
			c1,0.4,2,1.2,2,1.2c0.3,0.2,0.7,0.6,1,0.9l5.8,5.8c0.3,0.3,0.7,0.3,0.9,0l2.8-2.8c0.3-0.3,0.3-0.7,0-0.9l-7.4-7.4
			c-0.3-0.3-0.7-0.6-1-0.9c0,0-1-0.8-2-1.2c-1-0.4-2.3-0.6-2.3-0.6C40.9,1,40.3,1,39.9,1H22.7c-0.4,0-0.9,0-1.3,0.1
			c0,0-1.3,0.2-2.3,0.6c-1,0.4-2,1.2-2,1.2c-0.3,0.2-0.7,0.6-1,0.9L4,15.8c-0.3,0.3-0.6,0.7-0.9,1c0,0-0.7,0.9-1.1,1.7
			c-0.5,1.1-0.7,2.5-0.7,2.5c-0.1,0.4-0.1,0.9-0.1,1.3v17.2c0,0.4,0,0.9,0.1,1.3c0,0,0.2,1.3,0.6,2.3c0.4,1,1.2,2,1.2,2
			c0.2,0.3,0.6,0.7,0.9,1l12.2,12.2c0.3,0.3,0.7,0.6,1,0.9c0,0,0.9,0.7,1.8,1.1c1,0.5,2.4,0.7,2.4,0.7c0.4,0,0.9,0.1,1.3,0.1h17.2
			c0.4,0,0.9,0,1.3-0.1c0,0,1.2-0.2,2.2-0.6c1-0.4,2.1-1.2,2.1-1.2c0.3-0.2,0.7-0.6,1-0.9l7.8-7.9c0.3-0.3,0.3-0.7,0-0.9L51.6,46.8z
			"/>
	</g>
	<path class="st1" d="M41.8,37.2c-0.2-0.3-0.7-0.3-0.9,0c0,0-3.3,5.4-9.6,5.4c-6.5,0-11.7-5.4-11.7-12.1s5.3-12.1,11.7-12.1
		c6.8,0,9.6,5.4,9.6,5.4c0.3,0.3,0.7,0.3,0.9,0l3.8-3.9c0.3-0.3,0.2-0.7,0-0.9c0,0-4.7-7.3-14.2-7.3c-10,0-18.2,8.4-18.2,18.8
		c0,10.4,8.1,18.8,18.2,18.8c9.7,0,14.2-7.3,14.2-7.3c0.3-0.2,0.3-0.7,0-0.9L41.8,37.2z"/>
	<g>
		<path class="st1" d="M74,34.4c-1.2,5.4-5.4,8.7-11.6,8.7c-7.4,0-12.7-4.7-12.7-12.3c0-7.6,5.4-13,12.6-13c7.8,0,11.9,5.4,11.9,12
			v2.1h-18c0.2,3.9,3,6.3,6.5,6.3c3.2,0,5.2-1.4,6.1-4.2L74,34.4z M67.7,28.4c-0.1-3.1-1.9-5.8-5.6-5.8c-3.6,0-5.6,2.6-6,5.8H67.7z"
			/>
		<path class="st1" d="M144.6,25.5c-1.3-0.7-2.3-1-3.9-1c-3.4,0-5.7,2.4-5.7,6.8v11.9h-6.5v-24h6.5v4.6c0.9-2.7,3.4-5.2,6.7-5.2
			c1.5,0,2.7,0.4,3.4,1L144.6,25.5z"/>
		<path class="st1" d="M124.1,34.4c-1.2,5.4-5.4,8.7-11.6,8.7c-7.4,0-12.7-4.7-12.7-12.3c0-7.6,5.4-13,12.6-13
			c7.8,0,11.9,5.4,11.9,12v2.1h-18c0.2,3.9,3,6.3,6.5,6.3c3.2,0,5.2-1.4,6.1-4.2L124.1,34.4z M117.9,28.4c-0.1-3.1-1.9-5.8-5.6-5.8
			c-3.6,0-5.6,2.6-6,5.8H117.9z"/>
		<rect x="89" y="12.3" class="st1" width="6.5" height="30.7"/>
		<rect x="78.3" y="12.3" class="st1" width="6.5" height="30.7"/>
		<path class="st1" d="M166.3,18.4v12c0,3.9-2,7.1-5.3,7.1c-3.1,0-4.6-2.1-4.6-5.7V18.4H150v14.7c0,5.2,2.3,9.5,8.6,9.5
			c3.5,0,6.5-1,7.7-3.7V41c0,3.3-1.4,6.9-5.6,6.9c-1.6,0-4-1.2-4.9-3.4l-6.5,0.7c1.6,4.6,5.9,7.2,10.3,7.5
			c6.7,0.5,13.2-2.9,13.2-15.2V18.4C172.7,18.4,166.3,18.4,166.3,18.4z"/>
	</g>
</g>
</svg>
